# xmcd
#
# Track frame offsets:
#	150
#	26535
#	58355
#	81852
#	108845
#	133145
#	159220
#	180692
#	208597
#	238550
#	260412
#	283062
#
# Disc length: 4028 seconds
#
# Revision: 1
# Processed by: cddbd v1.5.1PL0 Copyright (c) Steve Scherf et al.
# Submitted via: CDex 1.50Beta5
#
DISCID=a60fba0c
DTITLE=さだまさし - さだまさし
DYEAR=1900
DGENRE=
TTITLE0=関白宣言
TTITLE1=さだまさし/防人の詩
TTITLE2=さだまさし/不良少女白書
TTITLE3=さだまさし/駅舎
TTITLE4=生生流転
TTITLE5=しあわせについて
TTITLE6=甲子園
TTITLE7=退職の日
TTITLE8=恋愛症候群
TTITLE9=男は大きな河になれ〜モルダウより〜
TTITLE10=夢の吹く頃
TTITLE11=冬の蝉
EXTD=
EXTT0=
EXTT1=
EXTT2=
EXTT3=
EXTT4=
EXTT5=
EXTT6=
EXTT7=
EXTT8=
EXTT9=
EXTT10=
EXTT11=
PLAYORDER=
